<svg xmlns="http://www.w3.org/2000/svg" viewBox="0 0 36 36">
  <!-- Ocean (grey) -->
  <circle cx="18" cy="18" r="15.5" fill="#9CA3AF"/>
  <!-- Longitude lines -->
  <ellipse cx="18" cy="18" rx="6" ry="15.5" fill="none" stroke="#B0B8C4" stroke-width="0.8"/>
  <ellipse cx="18" cy="18" rx="11" ry="15.5" fill="none" stroke="#B0B8C4" stroke-width="0.6"/>
  <!-- Latitude lines -->
  <line x1="3" y1="11" x2="33" y2="11" stroke="#B0B8C4" stroke-width="0.7"/>
  <line x1="2.5" y1="18" x2="33.5" y2="18" stroke="#B0B8C4" stroke-width="0.5"/>
  <line x1="3" y1="25" x2="33" y2="25" stroke="#B0B8C4" stroke-width="0.7"/>
  <!-- Continents (grey) -->
  <path d="M8 9Q13 11 17 8Q21 6 27 9Q25 13 20 12Q15 11 10 13Z" fill="#D1D5DB" fill-opacity="0.6"/>
  <path d="M5 16Q9 14 13 16Q11 21 7 20Z" fill="#D1D5DB" fill-opacity="0.5"/>
  <path d="M19 19Q25 17 31 20Q29 26 23 24Q21 22 19 19Z" fill="#D1D5DB" fill-opacity="0.5"/>
  <path d="M9 24Q13 22 15 25Q13 29 9 27Z" fill="#D1D5DB" fill-opacity="0.45"/>
  <!-- Border -->
  <circle cx="18" cy="18" r="15.5" fill="none" stroke="#6B7280" stroke-width="1.2"/>
  <!-- Network overlay: edges (muted) -->
  <line x1="10" y1="10" x2="18" y2="7" stroke="#E5E7EB" stroke-width="1" opacity="0.6"/>
  <line x1="18" y1="7" x2="28" y2="12" stroke="#E5E7EB" stroke-width="1" opacity="0.6"/>
  <line x1="10" y1="10" x2="8" y2="19" stroke="#E5E7EB" stroke-width="1" opacity="0.5"/>
  <line x1="8" y1="19" x2="14" y2="26" stroke="#E5E7EB" stroke-width="1" opacity="0.5"/>
  <line x1="18" y1="7" x2="20" y2="17" stroke="#E5E7EB" stroke-width="1" opacity="0.55"/>
  <line x1="28" y1="12" x2="26" y2="22" stroke="#E5E7EB" stroke-width="1" opacity="0.55"/>
  <line x1="20" y1="17" x2="26" y2="22" stroke="#E5E7EB" stroke-width="1" opacity="0.5"/>
  <line x1="20" y1="17" x2="14" y2="26" stroke="#E5E7EB" stroke-width="1" opacity="0.45"/>
  <line x1="14" y1="26" x2="24" y2="29" stroke="#E5E7EB" stroke-width="1" opacity="0.45"/>
  <line x1="26" y1="22" x2="24" y2="29" stroke="#E5E7EB" stroke-width="1" opacity="0.45"/>
  <!-- Network overlay: nodes (grey) -->
  <circle cx="10" cy="10" r="2.2" fill="#D1D5DB" stroke="#E5E7EB" stroke-width="0.8"/>
  <circle cx="18" cy="7" r="2.2" fill="#C4C9D0" stroke="#E5E7EB" stroke-width="0.8"/>
  <circle cx="28" cy="12" r="2.2" fill="#D1D5DB" stroke="#E5E7EB" stroke-width="0.8"/>
  <circle cx="8" cy="19" r="2" fill="#C4C9D0" stroke="#E5E7EB" stroke-width="0.8"/>
  <circle cx="20" cy="17" r="2.4" fill="#B8BEC6" stroke="#E5E7EB" stroke-width="0.8"/>
  <circle cx="26" cy="22" r="2" fill="#C4C9D0" stroke="#E5E7EB" stroke-width="0.8"/>
  <circle cx="14" cy="26" r="2" fill="#C4C9D0" stroke="#E5E7EB" stroke-width="0.8"/>
  <circle cx="24" cy="29" r="2" fill="#D1D5DB" stroke="#E5E7EB" stroke-width="0.8"/>
</svg>