<svg xmlns="http://www.w3.org/2000/svg" viewBox="0 0 520 360" width="520" height="360">
<defs>
  <style>
    .cn{fill:#1B3FAA;font-family:'Microsoft YaHei','PingFang SC','Noto Sans SC',sans-serif;font-weight:900}
    .d{fill:#1B3FAA;font-family:Consolas,'Courier New',monospace;font-weight:bold}
  </style>
  <!-- Tiger silhouette for clipping digits -->
  <clipPath id="tc">
    <use href="#tigerBody"/>
  </clipPath>
</defs>

<g transform="translate(60,15)">
  <!-- === Single-path tiger body silhouette === -->
  <path id="tigerBody" fill="#F5A623" d="
    M58,72 L52,52 C50,46 54,40 60,40 C66,40 68,46 66,52 L62,64
    L74,60 L70,42 C68,36 72,30 78,30 C84,30 86,36 84,42 L80,56
    C90,50 96,48 96,48
    C108,42 124,36 144,32
    C170,26 200,24 228,28
    C256,32 278,44 294,62
    C306,76 312,92 314,108
    C316,98 322,86 330,78
    C338,70 346,68 350,74
    C354,80 350,90 342,94
    C334,98 328,94 328,88
    C328,84 332,80 336,80
    L314,108
    C316,126 312,144 302,158
    C290,176 272,184 250,188
    L246,188 L248,218 C250,224 254,228 260,228
    L264,226 C266,224 266,220 264,216 L262,210
    L270,212 C272,218 272,226 266,232
    C260,236 252,236 248,232 C244,228 242,222 242,216
    L240,188
    L210,190 L212,220 C214,226 218,230 224,230
    L228,228 C230,226 230,222 228,218 L226,212
    L234,214 C236,220 236,228 230,234
    C224,238 216,238 212,234 C208,230 206,224 206,218
    L204,190
    L164,190 L162,218 C160,224 156,228 150,228
    L146,226 C144,224 144,220 146,216 L148,210
    L140,212 C138,218 138,226 144,232
    C150,236 158,236 162,232 C166,228 168,222 168,216
    L170,190
    L136,188 L134,216 C132,222 128,226 122,226
    L118,224 C116,222 116,218 118,214 L120,208
    L112,210 C110,216 110,224 116,230
    C122,234 130,234 134,230 C138,226 140,220 140,214
    L142,188
    L118,186
    C96,182 78,174 66,158
    C54,142 52,126 56,110
    L60,102
    C52,100 44,102 40,108
    C36,114 38,122 44,124
    L54,126
    C50,128 48,132 50,136
    L56,140
    C60,138 64,132 68,126
    L72,118
    C68,114 62,108 60,102
    C64,108 72,116 80,120
    L90,124
    C82,118 72,108 66,96
    C60,86 58,78 58,72
    Z
  "/>

  <!-- Eye -->
  <circle cx="52" cy="96" r="4" fill="#111"/>
  <circle cx="50.8" cy="95" r="1.5" fill="#fff" opacity="0.45"/>

  <!-- Nose -->
  <ellipse cx="40" cy="110" rx="3.5" ry="2.5" fill="#222"/>

  <!-- Whiskers -->
  <g stroke="#C8891A" stroke-width="0.7" fill="none" opacity="0.7">
    <line x1="38" y1="108" x2="22" y2="104"/>
    <line x1="38" y1="112" x2="20" y2="112"/>
    <line x1="38" y1="116" x2="22" y2="120"/>
  </g>

  <!-- Binary digits clipped to tiger shape -->
  <g clip-path="url(#tc)">
    <text class="d" font-size="13" x="56" y="58">1</text>
    <text class="d" font-size="12" x="70" y="50">0</text>
    <text class="d" font-size="13" x="84" y="46">1</text>

    <text class="d" font-size="14" x="96" y="56">1</text>
    <text class="d" font-size="12" x="112" y="50">0</text>
    <text class="d" font-size="13" x="128" y="46">1</text>
    <text class="d" font-size="14" x="144" y="42">0</text>
    <text class="d" font-size="12" x="160" y="40">1</text>
    <text class="d" font-size="13" x="176" y="38">1</text>
    <text class="d" font-size="14" x="192" y="36">0</text>
    <text class="d" font-size="12" x="208" y="36">1</text>

    <text class="d" font-size="13" x="88" y="72">0</text>
    <text class="d" font-size="14" x="104" y="66">1</text>
    <text class="d" font-size="12" x="120" y="62">1</text>
    <text class="d" font-size="13" x="136" y="58">0</text>
    <text class="d" font-size="14" x="152" y="54">1</text>
    <text class="d" font-size="12" x="168" y="52">0</text>
    <text class="d" font-size="13" x="184" y="50">1</text>
    <text class="d" font-size="14" x="200" y="48">1</text>
    <text class="d" font-size="12" x="216" y="48">0</text>
    <text class="d" font-size="13" x="232" y="50">1</text>
    <text class="d" font-size="14" x="248" y="54">0</text>

    <text class="d" font-size="12" x="80" y="88">1</text>
    <text class="d" font-size="13" x="96" y="84">0</text>
    <text class="d" font-size="14" x="112" y="78">1</text>
    <text class="d" font-size="12" x="128" y="74">1</text>
    <text class="d" font-size="13" x="144" y="70">0</text>
    <text class="d" font-size="14" x="160" y="66">1</text>
    <text class="d" font-size="12" x="176" y="64">0</text>
    <text class="d" font-size="13" x="192" y="62">1</text>
    <text class="d" font-size="14" x="208" y="60">1</text>
    <text class="d" font-size="12" x="224" y="60">0</text>
    <text class="d" font-size="13" x="240" y="62">1</text>
    <text class="d" font-size="14" x="256" y="66">0</text>
    <text class="d" font-size="12" x="272" y="72">1</text>
    <text class="d" font-size="13" x="288" y="78">0</text>

    <text class="d" font-size="14" x="72" y="104">1</text>
    <text class="d" font-size="12" x="88" y="100">0</text>
    <text class="d" font-size="13" x="104" y="96">1</text>
    <text class="d" font-size="14" x="120" y="90">0</text>
    <text class="d" font-size="12" x="136" y="86">1</text>
    <text class="d" font-size="13" x="152" y="82">1</text>
    <text class="d" font-size="14" x="168" y="80">0</text>
    <text class="d" font-size="12" x="184" y="78">1</text>
    <text class="d" font-size="13" x="200" y="76">0</text>
    <text class="d" font-size="14" x="216" y="74">1</text>
    <text class="d" font-size="12" x="232" y="74">1</text>
    <text class="d" font-size="13" x="248" y="76">0</text>
    <text class="d" font-size="14" x="264" y="80">1</text>
    <text class="d" font-size="12" x="280" y="86">0</text>
    <text class="d" font-size="13" x="296" y="92">1</text>
    <text class="d" font-size="14" x="308" y="100">0</text>

    <text class="d" font-size="12" x="68" y="120">0</text>
    <text class="d" font-size="13" x="84" y="116">1</text>
    <text class="d" font-size="14" x="100" y="112">0</text>
    <text class="d" font-size="12" x="116" y="108">1</text>
    <text class="d" font-size="13" x="132" y="104">1</text>
    <text class="d" font-size="14" x="148" y="100">0</text>
    <text class="d" font-size="12" x="164" y="96">1</text>
    <text class="d" font-size="13" x="180" y="94">0</text>
    <text class="d" font-size="14" x="196" y="92">1</text>
    <text class="d" font-size="12" x="212" y="90">1</text>
    <text class="d" font-size="13" x="228" y="90">0</text>
    <text class="d" font-size="14" x="244" y="92">1</text>
    <text class="d" font-size="12" x="260" y="96">0</text>
    <text class="d" font-size="13" x="276" y="100">1</text>
    <text class="d" font-size="14" x="292" y="106">1</text>
    <text class="d" font-size="12" x="306" y="114">0</text>

    <text class="d" font-size="13" x="64" y="136">1</text>
    <text class="d" font-size="14" x="80" y="132">0</text>
    <text class="d" font-size="12" x="96" y="128">1</text>
    <text class="d" font-size="13" x="112" y="124">1</text>
    <text class="d" font-size="14" x="128" y="120">0</text>
    <text class="d" font-size="12" x="144" y="116">1</text>
    <text class="d" font-size="13" x="160" y="112">0</text>
    <text class="d" font-size="14" x="176" y="110">1</text>
    <text class="d" font-size="12" x="192" y="108">1</text>
    <text class="d" font-size="13" x="208" y="106">0</text>
    <text class="d" font-size="14" x="224" y="106">1</text>
    <text class="d" font-size="12" x="240" y="108">0</text>
    <text class="d" font-size="13" x="256" y="112">1</text>
    <text class="d" font-size="14" x="272" y="116">1</text>
    <text class="d" font-size="12" x="288" y="122">0</text>
    <text class="d" font-size="13" x="302" y="130">1</text>

    <text class="d" font-size="14" x="62" y="152">0</text>
    <text class="d" font-size="12" x="78" y="148">1</text>
    <text class="d" font-size="13" x="94" y="144">0</text>
    <text class="d" font-size="14" x="110" y="140">1</text>
    <text class="d" font-size="12" x="126" y="136">1</text>
    <text class="d" font-size="13" x="142" y="132">0</text>
    <text class="d" font-size="14" x="158" y="128">1</text>
    <text class="d" font-size="12" x="174" y="126">0</text>
    <text class="d" font-size="13" x="190" y="124">1</text>
    <text class="d" font-size="14" x="206" y="122">1</text>
    <text class="d" font-size="12" x="222" y="122">0</text>
    <text class="d" font-size="13" x="238" y="124">1</text>
    <text class="d" font-size="14" x="254" y="128">0</text>
    <text class="d" font-size="12" x="270" y="132">1</text>
    <text class="d" font-size="13" x="286" y="138">1</text>
    <text class="d" font-size="14" x="298" y="146">0</text>

    <text class="d" font-size="12" x="66" y="168">1</text>
    <text class="d" font-size="13" x="82" y="164">0</text>
    <text class="d" font-size="14" x="98" y="160">1</text>
    <text class="d" font-size="12" x="114" y="156">0</text>
    <text class="d" font-size="13" x="130" y="152">1</text>
    <text class="d" font-size="14" x="146" y="148">1</text>
    <text class="d" font-size="12" x="162" y="144">0</text>
    <text class="d" font-size="13" x="178" y="142">1</text>
    <text class="d" font-size="14" x="194" y="140">0</text>
    <text class="d" font-size="12" x="210" y="138">1</text>
    <text class="d" font-size="13" x="226" y="138">1</text>
    <text class="d" font-size="14" x="242" y="140">0</text>
    <text class="d" font-size="12" x="258" y="144">1</text>
    <text class="d" font-size="13" x="274" y="150">0</text>
    <text class="d" font-size="14" x="288" y="156">1</text>

    <text class="d" font-size="13" x="76" y="180">1</text>
    <text class="d" font-size="14" x="92" y="176">0</text>
    <text class="d" font-size="12" x="108" y="172">1</text>
    <text class="d" font-size="13" x="124" y="168">0</text>
    <text class="d" font-size="14" x="140" y="164">1</text>
    <text class="d" font-size="12" x="156" y="160">1</text>
    <text class="d" font-size="13" x="172" y="158">0</text>
    <text class="d" font-size="14" x="188" y="156">1</text>
    <text class="d" font-size="12" x="204" y="154">0</text>
    <text class="d" font-size="13" x="220" y="154">1</text>
    <text class="d" font-size="14" x="236" y="156">1</text>
    <text class="d" font-size="12" x="252" y="160">0</text>
    <text class="d" font-size="13" x="268" y="166">1</text>
    <text class="d" font-size="14" x="282" y="172">0</text>

    <text class="d" font-size="14" x="100" y="192">1</text>
    <text class="d" font-size="12" x="116" y="190">0</text>
    <text class="d" font-size="13" x="132" y="188">1</text>
    <text class="d" font-size="14" x="148" y="186">0</text>
    <text class="d" font-size="12" x="164" y="184">1</text>
    <text class="d" font-size="13" x="180" y="182">1</text>
    <text class="d" font-size="14" x="196" y="180">0</text>
    <text class="d" font-size="12" x="212" y="180">1</text>
    <text class="d" font-size="13" x="228" y="182">0</text>
    <text class="d" font-size="14" x="244" y="184">1</text>
    <text class="d" font-size="12" x="260" y="186">1</text>
  </g>
</g>

<!-- 奇安信 text -->
<text class="cn" font-size="80" x="100" y="320">奇安信</text>
</svg>